<svg xmlns="http://www.w3.org/2000/svg" version="1.1" xmlns:xlink="http://www.w3.org/1999/xlink" xmlns:svgjs="http://svgjs.dev/svgjs" width="1500" height="1338" viewBox="0 0 1500 1338"><g transform="matrix(1,0,0,1,-3.9825949367088924,-1.8931276595742474)"><svg viewBox="0 0 158 141" data-background-color="#0a0a0a" preserveAspectRatio="xMidYMid meet" height="1338" width="1500" xmlns="http://www.w3.org/2000/svg" xmlns:xlink="http://www.w3.org/1999/xlink"><g id="tight-bounds" transform="matrix(1,0,0,1,0.4194999999999993,0.19949999999997203)"><svg viewBox="0 0 157.1606901818182 140.60052000000002" height="140.60052000000002" width="157.1606901818182"><g><svg viewBox="0 0 157.1606901818182 140.60052000000002" height="140.60052000000002" width="157.1606901818182"><g><svg viewBox="0 0 157.1606901818182 140.60052000000002" height="140.60052000000002" width="157.1606901818182"><g><path d="M0 140.601v-140.601h157.161v140.601z" fill="#21272d" stroke="transparent" stroke-width="0" rx="0%" data-fill-palette-color="tertiary"></path><path d="M3.283 137.317v-134.034h150.594v134.034z" fill="#f9f6ed" stroke="transparent" stroke-width="0" rx="0%" data-fill-palette-color="quaternary"></path><path d="M9.85 130.751v-120.901h137.461v120.901z" fill="#21272d" stroke="transparent" stroke-width="0" data-fill-palette-color="tertiary"></path></g><g transform="matrix(1,0,0,1,19.69973999999999,19.69974)" id="textblocktransform"><svg viewBox="0 0 117.76121018181823 101.20104000000002" height="101.20104000000002" width="117.76121018181823" id="textblock"><g><svg viewBox="0 0 117.76121018181823 101.20104000000002" height="101.20104000000002" width="117.76121018181823"><g transform="matrix(1,0,0,1,0,0)"><svg width="117.76121018181823" viewBox="2.1499999999999995 -32.35 38.4 33" height="101.20104000000002" data-palette-color="#f9f6ed"><path d="M10.2 0.65L10.2 0.65Q8.35 0.65 6.8 0.3 5.25-0.05 4.25-1L4.25-1Q3.5-1.7 3.25-2.58 3-3.45 3-4.5L3-4.5Q3-6.2 3.3-7.9L3.3-7.9Q3.75-10.85 4.1-14.25 4.45-17.65 4.45-20.55L4.45-20.55Q4.45-21.45 4.38-22.6 4.3-23.75 4.15-24.75L4.15-24.75Q3.8-24.6 3.48-24.48 3.15-24.35 2.9-24.35L2.9-24.35Q2.45-24.35 2.3-24.8 2.15-25.25 2.15-25.8L2.15-25.8Q2.15-27.25 2.83-28.28 3.5-29.3 5.05-30.1L5.05-30.1Q6.7-31 9.38-31.68 12.05-32.35 14.8-32.35L14.8-32.35Q21.05-32.35 24.63-28.68 28.2-25 28.2-18.25L28.2-18.25Q28.2-14.4 27.03-10.98 25.85-7.55 23.55-4.93 21.25-2.3 17.9-0.83 14.55 0.65 10.2 0.65ZM11.8-4.95L11.8-4.95Q14.05-4.95 16.3-5.65 18.55-6.35 20.38-7.75 22.2-9.15 23.3-11.33 24.4-13.5 24.4-16.55L24.4-16.55Q24.4-20 23.05-22.25 21.7-24.5 19.45-25.6 17.2-26.7 14.45-26.7L14.45-26.7Q12.95-26.7 11.48-26.45 10-26.2 9.15-25.95L9.15-25.95Q9.1-23.65 8.88-21.48 8.65-19.3 8.35-17.25L8.35-17.25Q8.05-15.1 7.88-13.05 7.7-11 7.7-9L7.7-9Q7.7-6.5 8.72-5.73 9.75-4.95 11.8-4.95ZM36.1 0.5L36.1 0.5Q34.9 0.5 34.15-0.15 33.4-0.8 33.4-2.8L33.4-2.8Q33.4-3.8 33.6-5.4 33.8-7 34-8.6L34-8.6Q34.55-12.15 34.8-14.75 35.05-17.35 35.05-20.05L35.05-20.05Q35.05-22.55 34.77-24.7 34.5-26.85 33.4-28.4L33.4-28.4Q33-29.05 33-29.4L33-29.4Q33-30 33.67-30.68 34.35-31.35 35.32-31.8 36.3-32.25 37.15-32.25L37.15-32.25Q38.7-32.25 39.22-30.88 39.75-29.5 39.75-27.45L39.75-27.45Q39.75-26.2 39.6-24.35 39.45-22.5 39.27-20.78 39.1-19.05 38.95-18.1L38.95-18.1Q38.6-15.45 38.4-13.15 38.2-10.85 38.2-9.25L38.2-9.25Q38.2-7.35 38.57-6.05 38.95-4.75 39.9-3.9L39.9-3.9Q40.55-3.3 40.55-2.55L40.55-2.55Q40.55-1.35 39.32-0.43 38.1 0.5 36.1 0.5Z" opacity="1" transform="matrix(1,0,0,1,0,0)" fill="#f9f6ed" class="wordmark-text-0" data-fill-palette-color="quaternary" id="text-0"></path></svg></g></svg></g></svg></g></svg></g><g></g></svg></g><defs></defs></svg><rect width="157.1606901818182" height="140.60052000000002" fill="none" stroke="none" visibility="hidden"></rect></g></svg></g></svg>